<?xml version="1.0" standalone="no"?>
 <!DOCTYPE svg PUBLIC "-//W3C//DTD SVG 1.1//EN" 
 "http://www.w3.org/Graphics/SVG/1.1/DTD/svg11.dtd"> 
<svg xmlns="http://www.w3.org/2000/svg" version="1.1" 
    width="4.1275cm" height="4.0259cm" viewBox="0 0 16250 15850 ">
<title>SVG Picture created as PowerUnitCoolerController-brd.svg date 2016/01/31 14:44:56 </title>
  <desc>Picture generated by PCBNEW </desc>
<g style="fill:#000000; fill-opacity:1;stroke:#000000; stroke-opacity:1;
stroke-linecap:round; stroke-linejoin:round; "
 transform="translate(0 0) scale(1 1)">
</g>
<g style="fill:#000000; fill-opacity:0.0; 
stroke:#000000; stroke-width:-0.000393701; stroke-opacity:1; 
stroke-linecap:round; stroke-linejoin:round;">
</g>
<g style="fill:#000000; fill-opacity:0.0; 
stroke:#000000; stroke-width:0; stroke-opacity:1; 
stroke-linecap:round; stroke-linejoin:round;">
</g>
<g style="fill:#000000; fill-opacity:1.0; 
stroke:#000000; stroke-width:0; stroke-opacity:1; 
stroke-linecap:round; stroke-linejoin:round;">
<polyline style="fill-rule:evenodd;"
points="15325,7795
14833,7795
14833,7401
15325,7401
15325,7795
" /> 
<polyline style="fill-rule:evenodd;"
points="15325,7007
14833,7007
14833,6613
15325,6613
15325,7007
" /> 
<polyline style="fill-rule:evenodd;"
points="4161,10450
3098,10450
3098,9446
4161,9446
4161,10450
" /> 
<polyline style="fill-rule:evenodd;"
points="4377,12812
2881,12812
2881,11808
4377,11808
4377,12812
" /> 
<polyline style="fill-rule:evenodd;"
points="4883,11338
5375,11338
5375,11732
4883,11732
4883,11338
" /> 
<polyline style="fill-rule:evenodd;"
points="4883,12126
5375,12126
5375,12520
4883,12520
4883,12126
" /> 
<polyline style="fill-rule:evenodd;"
points="12483,11338
12975,11338
12975,11732
12483,11732
12483,11338
" /> 
<polyline style="fill-rule:evenodd;"
points="12483,12126
12975,12126
12975,12520
12483,12520
12483,12126
" /> 
<polyline style="fill-rule:evenodd;"
points="11761,10450
10698,10450
10698,9446
11761,9446
11761,10450
" /> 
<polyline style="fill-rule:evenodd;"
points="11977,12812
10481,12812
10481,11808
11977,11808
11977,12812
" /> 
<polyline style="fill-rule:evenodd;"
points="12838,6325
12838,5833
13232,5833
13232,6325
12838,6325
" /> 
<polyline style="fill-rule:evenodd;"
points="13626,6325
13626,5833
14020,5833
14020,6325
13626,6325
" /> 
<polyline style="fill-rule:evenodd;"
points="4702,6538
3757,6538
3757,5160
4702,5160
4702,6538
" /> 
<polyline style="fill-rule:evenodd;"
points="4702,9098
3757,9098
3757,7720
4702,7720
4702,9098
" /> 
<polyline style="fill-rule:evenodd;"
points="7264,7062
6595,7062
6595,5763
7264,5763
7264,7062
" /> 
<polyline style="fill-rule:evenodd;"
points="7264,4896
6595,4896
6595,3597
7264,3597
7264,4896
" /> 
<polyline style="fill-rule:evenodd;"
points="6929,12149
6129,12149
6129,10709
6929,10709
6929,12149
" /> 
<polyline style="fill-rule:evenodd;"
points="9529,11629
8729,11629
8729,11229
9529,11229
9529,11629
" /> 
<polyline style="fill-rule:evenodd;"
points="9529,10729
8729,10729
8729,10329
9529,10329
9529,10729
" /> 
<polyline style="fill-rule:evenodd;"
points="9529,12529
8729,12529
8729,12129
9529,12129
9529,12529
" /> 
<polyline style="fill-rule:evenodd;"
points="14401,8551
14401,8807
13731,8807
13731,8551
14401,8551
" /> 
<polyline style="fill-rule:evenodd;"
points="14401,8051
14401,8307
13731,8307
13731,8051
14401,8051
" /> 
<polyline style="fill-rule:evenodd;"
points="14401,7551
14401,7807
13731,7807
13731,7551
14401,7551
" /> 
<polyline style="fill-rule:evenodd;"
points="14401,7051
14401,7307
13731,7307
13731,7051
14401,7051
" /> 
<polyline style="fill-rule:evenodd;"
points="11527,7051
11527,7307
10857,7307
10857,7051
11527,7051
" /> 
<polyline style="fill-rule:evenodd;"
points="11527,7551
11527,7807
10857,7807
10857,7551
11527,7551
" /> 
<polyline style="fill-rule:evenodd;"
points="11527,8051
11527,8307
10857,8307
10857,8051
11527,8051
" /> 
<polyline style="fill-rule:evenodd;"
points="11527,8551
11527,8807
10857,8807
10857,8551
11527,8551
" /> 
<polyline style="fill-rule:evenodd;"
points="4217,3665
4217,1893
5004,1893
5004,3665
4217,3665
" /> 
<polyline style="fill-rule:evenodd;"
points="1855,3665
1855,1893
2642,1893
2642,3665
1855,3665
" /> 
<polyline style="fill-rule:evenodd;"
points="13629,10469
13629,9789
14429,9789
14429,10469
13629,10469
" /> 
</g>
<g style="fill:#000000; fill-opacity:1.0; 
stroke:#000000; stroke-width:680; stroke-opacity:1; 
stroke-linecap:round; stroke-linejoin:round;">
</g>
<g style="fill:#000000; fill-opacity:0.0; 
stroke:#000000; stroke-width:680; stroke-opacity:1; 
stroke-linecap:round; stroke-linejoin:round;">
<path d="M13969 11129
L14089 11129
" />
<path d="M13969 12129
L14089 12129
" />
</g>
<g style="fill:#000000; fill-opacity:0.0; 
stroke:#000000; stroke-width:0; stroke-opacity:1; 
stroke-linecap:round; stroke-linejoin:round;">
</g>
<g style="fill:#000000; fill-opacity:1.0; 
stroke:#000000; stroke-width:0; stroke-opacity:1; 
stroke-linecap:round; stroke-linejoin:round;">
<polyline style="fill-rule:evenodd;"
points="1229,11529
1229,10729
2029,10729
2029,11529
1229,11529
" /> 
</g>
<g style="fill:#000000; fill-opacity:1.0; 
stroke:#000000; stroke-width:800; stroke-opacity:1; 
stroke-linecap:round; stroke-linejoin:round;">
</g>
<g style="fill:#000000; fill-opacity:0.0; 
stroke:#000000; stroke-width:800; stroke-opacity:1; 
stroke-linecap:round; stroke-linejoin:round;">
<path d="M1629 12129
L1629 12129
" />
</g>
<g style="fill:#000000; fill-opacity:0.0; 
stroke:#000000; stroke-width:0; stroke-opacity:1; 
stroke-linecap:round; stroke-linejoin:round;">
</g>
<g style="fill:#000000; fill-opacity:1.0; 
stroke:#000000; stroke-width:0; stroke-opacity:1; 
stroke-linecap:round; stroke-linejoin:round;">
<polyline style="fill-rule:evenodd;"
points="10169,5029
9489,5029
9489,4229
10169,4229
10169,5029
" /> 
</g>
<g style="fill:#000000; fill-opacity:1.0; 
stroke:#000000; stroke-width:680; stroke-opacity:1; 
stroke-linecap:round; stroke-linejoin:round;">
</g>
<g style="fill:#000000; fill-opacity:0.0; 
stroke:#000000; stroke-width:680; stroke-opacity:1; 
stroke-linecap:round; stroke-linejoin:round;">
<path d="M10829 4689
L10829 4569
" />
<path d="M11829 4689
L11829 4569
" />
<path d="M12829 4689
L12829 4569
" />
<path d="M13829 4689
L13829 4569
" />
</g>
<g style="fill:#000000; fill-opacity:0.0; 
stroke:#000000; stroke-width:0; stroke-opacity:1; 
stroke-linecap:round; stroke-linejoin:round;">
</g>
<g style="fill:#000000; fill-opacity:1.0; 
stroke:#000000; stroke-width:0; stroke-opacity:1; 
stroke-linecap:round; stroke-linejoin:round;">
<polyline style="fill-rule:evenodd;"
points="2029,8189
2029,8869
1229,8869
1229,8189
2029,8189
" /> 
</g>
<g style="fill:#000000; fill-opacity:1.0; 
stroke:#000000; stroke-width:680; stroke-opacity:1; 
stroke-linecap:round; stroke-linejoin:round;">
</g>
<g style="fill:#000000; fill-opacity:0.0; 
stroke:#000000; stroke-width:680; stroke-opacity:1; 
stroke-linecap:round; stroke-linejoin:round;">
<path d="M1689 7529
L1569 7529
" />
<path d="M1689 6529
L1569 6529
" />
</g>
<g style="fill:#000000; fill-opacity:0.0; 
stroke:#000000; stroke-width:0; stroke-opacity:1; 
stroke-linecap:round; stroke-linejoin:round;">
</g>
<g style="fill:#000000; fill-opacity:1.0; 
stroke:#000000; stroke-width:0; stroke-opacity:1; 
stroke-linecap:round; stroke-linejoin:round;">
<polyline style="fill-rule:evenodd;"
points="9561,5678
9561,5993
9246,5993
9246,5678
9561,5678
" /> 
<polyline style="fill-rule:evenodd;"
points="8813,5678
8813,5993
8498,5993
8498,5678
8813,5678
" /> 
<polyline style="fill-rule:evenodd;"
points="9187,6465
9187,6780
8872,6780
8872,6465
9187,6465
" /> 
<polyline style="fill-rule:evenodd;"
points="8061,7378
8061,7693
7746,7693
7746,7378
8061,7378
" /> 
<polyline style="fill-rule:evenodd;"
points="7313,7378
7313,7693
6998,7693
6998,7378
7313,7378
" /> 
<polyline style="fill-rule:evenodd;"
points="7687,8165
7687,8480
7372,8480
7372,8165
7687,8165
" /> 
<polyline style="fill-rule:evenodd;"
points="10385,9041
9873,9041
9873,8765
10385,8765
10385,9041
" /> 
<polyline style="fill-rule:evenodd;"
points="10385,8293
9873,8293
9873,8017
10385,8017
10385,8293
" /> 
<polyline style="fill-rule:evenodd;"
points="9517,7585
9517,7073
9793,7073
9793,7585
9517,7585
" /> 
<polyline style="fill-rule:evenodd;"
points="10265,7585
10265,7073
10541,7073
10541,7585
10265,7585
" /> 
<polyline style="fill-rule:evenodd;"
points="8985,8441
8473,8441
8473,8165
8985,8165
8985,8441
" /> 
<polyline style="fill-rule:evenodd;"
points="8985,7693
8473,7693
8473,7417
8985,7417
8985,7693
" /> 
<circle cx="1629.53" cy="5129.53" r="500" /> 
</g>
<g style="fill:#000000; fill-opacity:1.0; 
stroke:#000000; stroke-width:39.3701; stroke-opacity:1; 
stroke-linecap:round; stroke-linejoin:round;">
</g>
<g style="fill:#000000; fill-opacity:1.0; 
stroke:#000000; stroke-width:0; stroke-opacity:1; 
stroke-linecap:round; stroke-linejoin:round;">
<circle cx="8429.53" cy="3629.53" r="500" /> 
</g>
<g style="fill:#000000; fill-opacity:1.0; 
stroke:#000000; stroke-width:39.3701; stroke-opacity:1; 
stroke-linecap:round; stroke-linejoin:round;">
</g>
<g style="fill:#000000; fill-opacity:1.0; 
stroke:#000000; stroke-width:98.4252; stroke-opacity:1; 
stroke-linecap:round; stroke-linejoin:round;">
</g>
<g style="fill:#000000; fill-opacity:0.0; 
stroke:#000000; stroke-width:98.4252; stroke-opacity:1; 
stroke-linecap:round; stroke-linejoin:round;">
<path d="M14029 11129
L14329 11129
" />
</g>
<g style="fill:#000000; fill-opacity:0.0; 
stroke:#000000; stroke-width:275.591; stroke-opacity:1; 
stroke-linecap:round; stroke-linejoin:round;">
<path d="M14329 11129
L14829 10629
" />
<path d="M14829 10629
L14829 7848
" />
</g>
<g style="fill:#000000; fill-opacity:0.0; 
stroke:#000000; stroke-width:196.85; stroke-opacity:1; 
stroke-linecap:round; stroke-linejoin:round;">
<path d="M14829 7848
L15079 7598
" />
</g>
<g style="fill:#000000; fill-opacity:0.0; 
stroke:#000000; stroke-width:98.4252; stroke-opacity:1; 
stroke-linecap:round; stroke-linejoin:round;">
<path d="M14029 11129
L14379 11129
" />
</g>
<g style="fill:#000000; fill-opacity:0.0; 
stroke:#000000; stroke-width:196.85; stroke-opacity:1; 
stroke-linecap:round; stroke-linejoin:round;">
<path d="M15079 7598
L14685 7598
" />
</g>
<g style="fill:#000000; fill-opacity:0.0; 
stroke:#000000; stroke-width:275.591; stroke-opacity:1; 
stroke-linecap:round; stroke-linejoin:round;">
<path d="M14604 7679
L14066 7679
" />
</g>
<g style="fill:#000000; fill-opacity:0.0; 
stroke:#000000; stroke-width:98.4252; stroke-opacity:1; 
stroke-linecap:round; stroke-linejoin:round;">
<path d="M14685 7598
L14604 7679
" />
<path d="M14135 11235
L14029 11129
" />
<path d="M13829 4629
L13829 3929
" />
<path d="M12829 2929
L6929 2929
" />
<path d="M13829 3929
L12829 2929
" />
<path d="M1629 8529
L429 8529
" />
<path d="M6929 429
L729 429
" />
<path d="M6929 2929
L6929 429
" />
<path d="M429 729
L429 8529
" />
<path d="M729 429
L429 729
" />
<path d="M429 12129
L1629 12129
" />
<path d="M429 8529
L429 12129
" />
<path d="M14029 12129
L14429 12129
" />
<path d="M14429 12129
L14729 11829
" />
<path d="M15729 8029
L15729 6829
" />
<path d="M15129 8629
L15729 8029
" />
<path d="M15129 10829
L15129 8629
" />
<path d="M14729 11229
L15129 10829
" />
<path d="M14729 11829
L14729 11229
" />
<path d="M4229 8409
L1749 8409
" />
<path d="M1749 8409
L1629 8529
" />
<path d="M14029 12129
L14229 12129
" />
<path d="M6929 4246
L6929 2929
" />
<path d="M15729 6829
L15629 6829
" />
<path d="M15510 6810
L15079 6810
" />
<path d="M15529 6829
L15510 6810
" />
<path d="M15729 6829
L15629 6829
" />
<path d="M15629 6829
L15529 6829
" />
<path d="M13823 6079
L14004 6079
" />
<path d="M14004 6079
L14066 6017
" />
<path d="M15079 6810
L14435 6810
" />
<path d="M14435 6810
L14066 7179
" />
<path d="M14066 7179
L14066 6017
" />
<path d="M14066 6017
L14066 4866
" />
<path d="M14066 4866
L13829 4629
" />
<path d="M14029 12129
L13429 12129
" />
<path d="M13235 12323
L12729 12323
" />
<path d="M13429 12129
L13235 12323
" />
<path d="M12729 12323
L11242 12323
" />
<path d="M11242 12323
L11235 12329
" />
<path d="M11235 12329
L9129 12329
" />
<path d="M5129 12323
L5129 12329
" />
<path d="M5129 12329
L6029 13229
" />
<path d="M9129 13029
L9129 12329
" />
<path d="M8929 13229
L9129 13029
" />
<path d="M6029 13229
L8929 13229
" />
<path d="M5129 12323
L3642 12323
" />
<path d="M3642 12323
L3629 12310
" />
<path d="M1629 12129
L3448 12129
" />
<path d="M3448 12129
L3629 12310
" />
<path d="M8655 5835
L8655 5255
" />
<path d="M7646 4246
L6929 4246
" />
<path d="M8655 5255
L7646 4246
" />
<path d="M8729 8303
L8729 9529
" />
<path d="M5129 11535
L5129 9529
" />
<path d="M9129 10529
L9129 9829
" />
<path d="M8829 9529
L8729 9529
" />
<path d="M9129 9829
L8829 9529
" />
<path d="M8729 9529
L5129 9529
" />
<path d="M5129 9529
L4048 9529
" />
<path d="M4048 9529
L3629 9948
" />
<path d="M1629 11129
L1629 10929
" />
<path d="M1629 10929
L2610 9948
" />
<path d="M2610 9948
L3629 9948
" />
<path d="M8729 8303
L7548 8303
" />
<path d="M7548 8303
L7529 8322
" />
<path d="M3448 10129
L3942 9635
" />
<path d="M11192 8679
L11192 9866
" />
<path d="M12429 10129
L12229 10129
" />
<path d="M11192 8679
L10679 8679
" />
<path d="M10455 8903
L10129 8903
" />
<path d="M10679 8679
L10455 8903
" />
<path d="M11092 9811
L11229 9948
" />
<path d="M14029 10129
L12429 10129
" />
<path d="M12229 10129
L12048 9948
" />
<path d="M12729 11535
L12729 10629
" />
<path d="M12048 9948
L11229 9948
" />
<path d="M12729 10629
L12048 9948
" />
<path d="M9129 11429
L9629 11429
" />
</g>
<g style="fill:#000000; fill-opacity:0.0; 
stroke:#000000; stroke-width:393.701; stroke-opacity:1; 
stroke-linecap:round; stroke-linejoin:round;">
<path d="M10210 9948
L11229 9948
" />
</g>
<g style="fill:#000000; fill-opacity:0.0; 
stroke:#000000; stroke-width:98.4252; stroke-opacity:1; 
stroke-linecap:round; stroke-linejoin:round;">
<path d="M10129 10029
L10210 9948
" />
</g>
<g style="fill:#000000; fill-opacity:0.0; 
stroke:#000000; stroke-width:393.701; stroke-opacity:1; 
stroke-linecap:round; stroke-linejoin:round;">
<path d="M10129 10929
L10129 10029
" />
<path d="M9629 11429
L10129 10929
" />
</g>
<g style="fill:#000000; fill-opacity:0.0; 
stroke:#000000; stroke-width:98.4252; stroke-opacity:1; 
stroke-linecap:round; stroke-linejoin:round;">
<path d="M9129 11429
L6529 11429
" />
<path d="M11542 9635
L11229 9948
" />
<path d="M13035 6079
L12829 6079
" />
</g>
<g style="fill:#000000; fill-opacity:0.0; 
stroke:#000000; stroke-width:393.701; stroke-opacity:1; 
stroke-linecap:round; stroke-linejoin:round;">
<path d="M12829 4629
L12829 6079
" />
</g>
<g style="fill:#000000; fill-opacity:0.0; 
stroke:#000000; stroke-width:275.591; stroke-opacity:1; 
stroke-linecap:round; stroke-linejoin:round;">
<path d="M12829 6079
L12829 8204
" />
<path d="M13304 8679
L14066 8679
" />
<path d="M12829 8204
L13304 8679
" />
</g>
<g style="fill:#000000; fill-opacity:0.0; 
stroke:#000000; stroke-width:98.4252; stroke-opacity:1; 
stroke-linecap:round; stroke-linejoin:round;">
<path d="M14029 8716
L14066 8679
" />
<path d="M4229 5849
L4229 4329
" />
<path d="M4610 3948
L4610 2779
" />
<path d="M4229 4329
L4610 3948
" />
</g>
<g style="fill:#000000; fill-opacity:0.0; 
stroke:#000000; stroke-width:393.701; stroke-opacity:1; 
stroke-linecap:round; stroke-linejoin:round;">
<path d="M2248 2779
L2248 4048
" />
<path d="M2429 4229
L2429 7129
" />
</g>
<g style="fill:#000000; fill-opacity:0.0; 
stroke:#000000; stroke-width:98.4252; stroke-opacity:1; 
stroke-linecap:round; stroke-linejoin:round;">
<path d="M2248 4048
L2429 4229
" />
</g>
<g style="fill:#000000; fill-opacity:0.0; 
stroke:#000000; stroke-width:196.85; stroke-opacity:1; 
stroke-linecap:round; stroke-linejoin:round;">
<path d="M7155 7535
L6335 7535
" />
</g>
<g style="fill:#000000; fill-opacity:0.0; 
stroke:#000000; stroke-width:393.701; stroke-opacity:1; 
stroke-linecap:round; stroke-linejoin:round;">
<path d="M6335 7535
L5929 7129
" />
<path d="M5929 7129
L2429 7129
" />
<path d="M2029 7129
L1629 7529
" />
<path d="M2429 7129
L2029 7129
" />
</g>
<g style="fill:#000000; fill-opacity:0.0; 
stroke:#000000; stroke-width:98.4252; stroke-opacity:1; 
stroke-linecap:round; stroke-linejoin:round;">
<path d="M7155 7535
L7155 6638
" />
<path d="M7155 6638
L6929 6412
" />
</g>
<g style="fill:#000000; fill-opacity:0.0; 
stroke:#000000; stroke-width:393.701; stroke-opacity:1; 
stroke-linecap:round; stroke-linejoin:round;">
<path d="M9829 4629
L9829 5229
" />
</g>
<g style="fill:#000000; fill-opacity:0.0; 
stroke:#000000; stroke-width:275.591; stroke-opacity:1; 
stroke-linecap:round; stroke-linejoin:round;">
<path d="M10403 5803
L10403 7329
" />
</g>
<g style="fill:#000000; fill-opacity:0.0; 
stroke:#000000; stroke-width:393.701; stroke-opacity:1; 
stroke-linecap:round; stroke-linejoin:round;">
<path d="M9829 5229
L10403 5803
" />
</g>
<g style="fill:#000000; fill-opacity:0.0; 
stroke:#000000; stroke-width:275.591; stroke-opacity:1; 
stroke-linecap:round; stroke-linejoin:round;">
<path d="M11192 7179
L10553 7179
" />
</g>
<g style="fill:#000000; fill-opacity:0.0; 
stroke:#000000; stroke-width:98.4252; stroke-opacity:1; 
stroke-linecap:round; stroke-linejoin:round;">
<path d="M10553 7179
L10403 7329
" />
</g>
<g style="fill:#000000; fill-opacity:0.0; 
stroke:#000000; stroke-width:393.701; stroke-opacity:1; 
stroke-linecap:round; stroke-linejoin:round;">
<path d="M10829 4629
L10829 5379
" />
</g>
<g style="fill:#000000; fill-opacity:0.0; 
stroke:#000000; stroke-width:275.591; stroke-opacity:1; 
stroke-linecap:round; stroke-linejoin:round;">
<path d="M11879 7679
L11192 7679
" />
<path d="M11879 6579
L11879 7679
" />
<path d="M11679 6579
L11879 6579
" />
</g>
<g style="fill:#000000; fill-opacity:0.0; 
stroke:#000000; stroke-width:393.701; stroke-opacity:1; 
stroke-linecap:round; stroke-linejoin:round;">
<path d="M11179 6079
L11679 6579
" />
<path d="M11179 5729
L11179 6079
" />
<path d="M10829 5379
L11179 5729
" />
</g>
<g style="fill:#000000; fill-opacity:0.0; 
stroke:#000000; stroke-width:275.591; stroke-opacity:1; 
stroke-linecap:round; stroke-linejoin:round;">
<path d="M11192 8179
L12179 8179
" />
</g>
<g style="fill:#000000; fill-opacity:0.0; 
stroke:#000000; stroke-width:393.701; stroke-opacity:1; 
stroke-linecap:round; stroke-linejoin:round;">
<path d="M11829 5779
L11829 4629
" />
<path d="M12329 6279
L11829 5779
" />
<path d="M12329 8029
L12329 6279
" />
</g>
<g style="fill:#000000; fill-opacity:0.0; 
stroke:#000000; stroke-width:275.591; stroke-opacity:1; 
stroke-linecap:round; stroke-linejoin:round;">
<path d="M12179 8179
L12329 8029
" />
<path d="M11829 4629
L11829 3929
" />
</g>
<g style="fill:#000000; fill-opacity:0.0; 
stroke:#000000; stroke-width:787.402; stroke-opacity:1; 
stroke-linecap:round; stroke-linejoin:round;">
<path d="M1629 5129
L1629 6529
" />
</g>
<g style="fill:#000000; fill-opacity:0.0; 
stroke:#000000; stroke-width:275.591; stroke-opacity:1; 
stroke-linecap:round; stroke-linejoin:round;">
<path d="M11529 3629
L8429 3629
" />
<path d="M11829 3929
L11529 3629
" />
<path d="M11192 8179
L10153 8179
" />
</g>
<g style="fill:#000000; fill-opacity:0.0; 
stroke:#000000; stroke-width:98.4252; stroke-opacity:1; 
stroke-linecap:round; stroke-linejoin:round;">
<path d="M10153 8179
L10129 8155
" />
</g>
<g style="fill:#000000; fill-opacity:0.0; 
stroke:#000000; stroke-width:275.591; stroke-opacity:1; 
stroke-linecap:round; stroke-linejoin:round;">
<path d="M9403 5835
L9535 5835
" />
</g>
<g style="fill:#000000; fill-opacity:0.0; 
stroke:#000000; stroke-width:98.4252; stroke-opacity:1; 
stroke-linecap:round; stroke-linejoin:round;">
<path d="M9535 5835
L9655 5955
" />
</g>
<g style="fill:#000000; fill-opacity:0.0; 
stroke:#000000; stroke-width:275.591; stroke-opacity:1; 
stroke-linecap:round; stroke-linejoin:round;">
<path d="M9655 5955
L9655 7329
" />
</g>
<g style="fill:#000000; fill-opacity:0.0; 
stroke:#000000; stroke-width:98.4252; stroke-opacity:1; 
stroke-linecap:round; stroke-linejoin:round;">
<path d="M9029 6622
L9029 7255
" />
<path d="M9029 7255
L8729 7555
" />
<path d="M8729 7555
L7923 7555
" />
<path d="M7923 7555
L7903 7535
" />
</g>
<g style="fill:#000000; fill-opacity:1.0; 
stroke:#000000; stroke-width:100; stroke-opacity:1; 
stroke-linecap:round; stroke-linejoin:round;">
<polyline style="fill-rule:evenodd;"
points="16079,4629
16083,4648
16094,4665
16111,4676
16129,4679
16129,6779
16110,6783
16093,6794
16082,6811
16079,6829
16079,15679
179,15679
179,14352
1308,14352
1402,14580
1577,14755
1805,14850
2052,14850
2280,14756
2455,14581
2550,14353
2550,14106
2456,13878
2281,13703
2053,13608
1806,13608
1578,13702
1403,13877
1308,14105
1308,14352
179,14352
179,4911
779,4911
779,8229
783,8248
794,8265
811,8276
829,8279
3329,8279
3348,8275
3364,8264
3413,8215
3848,7829
4579,7829
4579,8979
829,8979
810,8983
793,8994
782,9011
779,9029
779,12129
783,12148
794,12165
811,12176
829,12179
4408,12179
4494,12264
4510,12275
4529,12279
5613,12279
6700,13069
6718,13078
6729,13079
8729,13079
8748,13075
8765,13064
8776,13047
8779,13029
8779,12179
9529,12179
9543,12177
10536,11879
11993,11879
12082,12145
12091,12162
12107,12174
12129,12179
14529,12179
14548,12175
14565,12164
14576,12147
14579,12129
14579,11847
14768,11610
14777,11593
14779,11579
14779,11250
15164,10864
15175,10848
15179,10829
15179,8179
15529,8179
15548,8175
15565,8164
15576,8147
15579,8129
15579,6929
15575,6910
15564,6893
15547,6882
15529,6879
14529,6879
14510,6883
14494,6894
14344,7044
14333,7060
14329,7079
14329,7229
13829,7229
13829,4529
13825,4510
13814,4493
13797,4482
13779,4479
13629,4479
13629,3830
13670,3830
13675,3850
13684,3863
13743,3926
13759,3937
13778,3942
13798,3938
13814,3927
13825,3910
13829,3892
13829,3829
13825,3810
13814,3793
13797,3782
13779,3779
13720,3779
13701,3783
13684,3794
13674,3811
13670,3830
13629,3830
13629,3829
13625,3810
13614,3793
13597,3782
13579,3779
12200,3779
11814,3394
11807,3387
11657,3287
11629,3279
9152,3279
8917,2997
8914,2994
8814,2894
8798,2883
8779,2879
8079,2879
8060,2883
8040,2898
7640,3398
7631,3415
7629,3429
7629,3885
7633,3904
7642,3918
7952,4262
7968,4274
7989,4279
8729,4279
8729,5929
7729,5929
7729,4879
7725,4860
7714,4843
7697,4832
7679,4829
5529,4829
5529,1952
13708,1952
13802,2180
13977,2355
14205,2450
14452,2450
14680,2356
14855,2181
14950,1953
14950,1706
14856,1478
14681,1303
14453,1208
14206,1208
13978,1302
13803,1477
13708,1705
13708,1952
5529,1952
5529,879
5525,860
5514,843
5497,832
5479,829
1279,829
1260,833
1243,844
1232,861
1229,879
1229,4361
791,4879
781,4896
779,4911
179,4911
179,179
16079,179
16079,4629
" /> 
<polyline style="fill-rule:evenodd;"
points="5279,6479
3779,6479
3779,1079
5279,1079
5279,6479
" /> 
<polyline style="fill-rule:evenodd;"
points="3279,6829
3283,6848
3294,6865
3311,6876
3329,6879
5579,6879
5598,6875
5615,6864
5626,6847
5629,6829
5629,5829
7179,5829
7179,7029
7183,7048
7194,7065
7211,7076
7229,7079
7229,7379
7210,7383
7193,7394
7182,7411
7179,7429
7179,7629
5629,7629
5629,7429
5625,7410
5614,7393
5597,7382
5579,7379
3329,7379
3310,7383
3293,7394
3282,7411
3279,7429
3279,7779
1597,7779
1356,7578
1712,7267
2011,7017
2014,7014
2100,6929
2279,6929
2298,6925
2315,6914
2326,6897
2329,6879
2329,4379
2325,4360
2314,4343
2297,4332
2279,4329
1479,4329
1479,1079
3279,1079
3279,6829
" /> 
<polyline style="fill-rule:evenodd;"
points="9479,10679
8779,10679
8779,9929
8775,9910
8764,9893
8747,9882
8729,9879
6735,9879
6715,9883
6706,9888
5601,10653
5587,10668
5579,10694
5579,11679
4679,11679
4679,10429
4675,10410
4664,10393
4647,10382
4629,10379
2429,10379
2410,10383
2393,10394
2382,10411
2379,10429
2379,11479
1279,11479
1279,9379
6079,9379
6098,9375
6115,9364
6126,9347
6129,9329
6129,8229
9479,8229
9479,10679
" /> 
<polyline style="fill-rule:evenodd;"
points="11679,9129
11683,9148
11694,9165
11711,9176
11729,9179
14379,9179
14379,10429
13379,10429
13360,10433
13343,10444
13332,10461
13329,10479
13329,11679
12179,11679
12179,10429
12175,10410
12164,10393
12147,10382
12129,10379
10329,10379
10310,10383
10293,10394
10282,10411
10279,10429
10279,11529
9779,11529
9779,11429
9775,11410
9764,11393
9747,11382
9728,11379
9708,11384
9692,11395
9684,11407
9598,11579
8429,11579
8410,11583
8393,11594
8382,11611
8379,11629
8379,12729
6793,12729
6029,12251
6029,10655
6795,10129
8379,10129
8379,11229
8383,11248
8394,11265
8411,11276
8429,11279
9729,11279
9748,11275
9765,11264
9776,11247
9779,11229
9779,8829
10579,8829
10598,8825
10615,8814
10626,8797
10629,8779
10629,8629
11679,8629
11679,9129
" /> 
<polyline style="fill-rule:evenodd;"
points="9129,7629
7829,7629
7829,6529
9129,6529
9129,7629
" /> 
<polyline style="fill-rule:evenodd;"
points="15229,7729
14529,7729
14529,7629
15229,7629
15229,7729
" /> 
<polyline style="fill-rule:evenodd;"
points="10498,5870
11479,6948
11479,7229
10479,7229
10479,5860
10498,5870
" /> 
<polyline style="fill-rule:evenodd;"
points="13179,8418
12829,8107
12829,5879
13179,5879
13179,8418
" /> 
</g>
<g style="fill:#FFFFFF; fill-opacity:1.0; 
stroke:#FFFFFF; stroke-width:100; stroke-opacity:1; 
stroke-linecap:round; stroke-linejoin:round;">
</g>
<g style="fill:#FFFFFF; fill-opacity:1.0; 
stroke:#FFFFFF; stroke-width:0; stroke-opacity:1; 
stroke-linecap:round; stroke-linejoin:round;">
<circle cx="1629.53" cy="5129.53" r="78.7402" /> 
</g>
<g style="fill:#FFFFFF; fill-opacity:1.0; 
stroke:#FFFFFF; stroke-width:39.3701; stroke-opacity:1; 
stroke-linecap:round; stroke-linejoin:round;">
</g>
<g style="fill:#FFFFFF; fill-opacity:1.0; 
stroke:#FFFFFF; stroke-width:0; stroke-opacity:1; 
stroke-linecap:round; stroke-linejoin:round;">
<circle cx="8429.53" cy="3629.53" r="78.7402" /> 
</g>
<g style="fill:#FFFFFF; fill-opacity:1.0; 
stroke:#FFFFFF; stroke-width:39.3701; stroke-opacity:1; 
stroke-linecap:round; stroke-linejoin:round;">
</g>
<g style="fill:#FFFFFF; fill-opacity:1.0; 
stroke:#FFFFFF; stroke-width:0; stroke-opacity:1; 
stroke-linecap:round; stroke-linejoin:round;">
<circle cx="14029.5" cy="10129.5" r="200" /> 
</g>
<g style="fill:#FFFFFF; fill-opacity:1.0; 
stroke:#FFFFFF; stroke-width:39.3701; stroke-opacity:1; 
stroke-linecap:round; stroke-linejoin:round;">
</g>
<g style="fill:#FFFFFF; fill-opacity:1.0; 
stroke:#FFFFFF; stroke-width:0; stroke-opacity:1; 
stroke-linecap:round; stroke-linejoin:round;">
<circle cx="14029.5" cy="11129.5" r="200" /> 
</g>
<g style="fill:#FFFFFF; fill-opacity:1.0; 
stroke:#FFFFFF; stroke-width:39.3701; stroke-opacity:1; 
stroke-linecap:round; stroke-linejoin:round;">
</g>
<g style="fill:#FFFFFF; fill-opacity:1.0; 
stroke:#FFFFFF; stroke-width:0; stroke-opacity:1; 
stroke-linecap:round; stroke-linejoin:round;">
<circle cx="14029.5" cy="12129.5" r="200" /> 
</g>
<g style="fill:#FFFFFF; fill-opacity:1.0; 
stroke:#FFFFFF; stroke-width:39.3701; stroke-opacity:1; 
stroke-linecap:round; stroke-linejoin:round;">
</g>
<g style="fill:#FFFFFF; fill-opacity:1.0; 
stroke:#FFFFFF; stroke-width:0; stroke-opacity:1; 
stroke-linecap:round; stroke-linejoin:round;">
<circle cx="1629.53" cy="11129.5" r="200" /> 
</g>
<g style="fill:#FFFFFF; fill-opacity:1.0; 
stroke:#FFFFFF; stroke-width:39.3701; stroke-opacity:1; 
stroke-linecap:round; stroke-linejoin:round;">
</g>
<g style="fill:#FFFFFF; fill-opacity:1.0; 
stroke:#FFFFFF; stroke-width:0; stroke-opacity:1; 
stroke-linecap:round; stroke-linejoin:round;">
<circle cx="1629.53" cy="12129.5" r="200" /> 
</g>
<g style="fill:#FFFFFF; fill-opacity:1.0; 
stroke:#FFFFFF; stroke-width:39.3701; stroke-opacity:1; 
stroke-linecap:round; stroke-linejoin:round;">
</g>
<g style="fill:#FFFFFF; fill-opacity:1.0; 
stroke:#FFFFFF; stroke-width:0; stroke-opacity:1; 
stroke-linecap:round; stroke-linejoin:round;">
<circle cx="9829.53" cy="4629.53" r="200" /> 
</g>
<g style="fill:#FFFFFF; fill-opacity:1.0; 
stroke:#FFFFFF; stroke-width:39.3701; stroke-opacity:1; 
stroke-linecap:round; stroke-linejoin:round;">
</g>
<g style="fill:#FFFFFF; fill-opacity:1.0; 
stroke:#FFFFFF; stroke-width:0; stroke-opacity:1; 
stroke-linecap:round; stroke-linejoin:round;">
<circle cx="10829.5" cy="4629.53" r="200" /> 
</g>
<g style="fill:#FFFFFF; fill-opacity:1.0; 
stroke:#FFFFFF; stroke-width:39.3701; stroke-opacity:1; 
stroke-linecap:round; stroke-linejoin:round;">
</g>
<g style="fill:#FFFFFF; fill-opacity:1.0; 
stroke:#FFFFFF; stroke-width:0; stroke-opacity:1; 
stroke-linecap:round; stroke-linejoin:round;">
<circle cx="11829.5" cy="4629.53" r="200" /> 
</g>
<g style="fill:#FFFFFF; fill-opacity:1.0; 
stroke:#FFFFFF; stroke-width:39.3701; stroke-opacity:1; 
stroke-linecap:round; stroke-linejoin:round;">
</g>
<g style="fill:#FFFFFF; fill-opacity:1.0; 
stroke:#FFFFFF; stroke-width:0; stroke-opacity:1; 
stroke-linecap:round; stroke-linejoin:round;">
<circle cx="12829.5" cy="4629.53" r="200" /> 
</g>
<g style="fill:#FFFFFF; fill-opacity:1.0; 
stroke:#FFFFFF; stroke-width:39.3701; stroke-opacity:1; 
stroke-linecap:round; stroke-linejoin:round;">
</g>
<g style="fill:#FFFFFF; fill-opacity:1.0; 
stroke:#FFFFFF; stroke-width:0; stroke-opacity:1; 
stroke-linecap:round; stroke-linejoin:round;">
<circle cx="13829.5" cy="4629.53" r="200" /> 
</g>
<g style="fill:#FFFFFF; fill-opacity:1.0; 
stroke:#FFFFFF; stroke-width:39.3701; stroke-opacity:1; 
stroke-linecap:round; stroke-linejoin:round;">
</g>
<g style="fill:#FFFFFF; fill-opacity:1.0; 
stroke:#FFFFFF; stroke-width:0; stroke-opacity:1; 
stroke-linecap:round; stroke-linejoin:round;">
<circle cx="1629.53" cy="8529.53" r="200" /> 
</g>
<g style="fill:#FFFFFF; fill-opacity:1.0; 
stroke:#FFFFFF; stroke-width:39.3701; stroke-opacity:1; 
stroke-linecap:round; stroke-linejoin:round;">
</g>
<g style="fill:#FFFFFF; fill-opacity:1.0; 
stroke:#FFFFFF; stroke-width:0; stroke-opacity:1; 
stroke-linecap:round; stroke-linejoin:round;">
<circle cx="1629.53" cy="7529.53" r="200" /> 
</g>
<g style="fill:#FFFFFF; fill-opacity:1.0; 
stroke:#FFFFFF; stroke-width:39.3701; stroke-opacity:1; 
stroke-linecap:round; stroke-linejoin:round;">
</g>
<g style="fill:#FFFFFF; fill-opacity:1.0; 
stroke:#FFFFFF; stroke-width:0; stroke-opacity:1; 
stroke-linecap:round; stroke-linejoin:round;">
<circle cx="1629.53" cy="6529.53" r="200" /> 
</g>
<g style="fill:#FFFFFF; fill-opacity:1.0; 
stroke:#FFFFFF; stroke-width:39.3701; stroke-opacity:1; 
stroke-linecap:round; stroke-linejoin:round;">
</g>
<g style="fill:#FFFFFF; fill-opacity:1.0; 
stroke:#FFFFFF; stroke-width:0; stroke-opacity:1; 
stroke-linecap:round; stroke-linejoin:round;">
<circle cx="14329.5" cy="1829.53" r="492.126" /> 
</g>
<g style="fill:#FFFFFF; fill-opacity:1.0; 
stroke:#FFFFFF; stroke-width:39.3701; stroke-opacity:1; 
stroke-linecap:round; stroke-linejoin:round;">
</g>
<g style="fill:#FFFFFF; fill-opacity:1.0; 
stroke:#FFFFFF; stroke-width:0; stroke-opacity:1; 
stroke-linecap:round; stroke-linejoin:round;">
<circle cx="1929.53" cy="14229.5" r="492.126" /> 
</g>
<g style="fill:#FFFFFF; fill-opacity:1.0; 
stroke:#FFFFFF; stroke-width:39.3701; stroke-opacity:1; 
stroke-linecap:round; stroke-linejoin:round;">
</g>
<g style="fill:#000000; fill-opacity:1.0; 
stroke:#000000; stroke-width:39.3701; stroke-opacity:1; 
stroke-linecap:round; stroke-linejoin:round;">
</g> 
</svg>
