<?xml version="1.0" standalone="no"?>
 <!DOCTYPE svg PUBLIC "-//W3C//DTD SVG 1.1//EN" 
 "http://www.w3.org/Graphics/SVG/1.1/DTD/svg11.dtd"> 
<svg xmlns="http://www.w3.org/2000/svg" version="1.1" 
    width="1.27254cm" height="0.96266cm" viewBox="0 0 5010 3790 ">
<title>SVG Picture created as ThermalSensor_LM335-brd.svg date 2016/01/31 14:38:28 </title>
  <desc>Picture generated by PCBNEW </desc>
<g style="fill:#000000; fill-opacity:1;stroke:#000000; stroke-opacity:1;
stroke-linecap:round; stroke-linejoin:round; "
 transform="translate(0 0) scale(1 1)">
</g>
<g style="fill:#000000; fill-opacity:0.0; 
stroke:#000000; stroke-width:-0.000393701; stroke-opacity:1; 
stroke-linecap:round; stroke-linejoin:round;">
</g>
<g style="fill:#000000; fill-opacity:0.0; 
stroke:#000000; stroke-width:0; stroke-opacity:1; 
stroke-linecap:round; stroke-linejoin:round;">
</g>
<g style="fill:#000000; fill-opacity:1.0; 
stroke:#000000; stroke-width:0; stroke-opacity:1; 
stroke-linecap:round; stroke-linejoin:round;">
<polyline style="fill-rule:evenodd;"
points="4283,1627
4775,1627
4775,2021
4283,2021
4283,1627
" /> 
<polyline style="fill-rule:evenodd;"
points="4283,2414
4775,2414
4775,2808
4283,2808
4283,2414
" /> 
</g>
<g style="fill:#000000; fill-opacity:1.0; 
stroke:#000000; stroke-width:512; stroke-opacity:1; 
stroke-linecap:round; stroke-linejoin:round;">
</g>
<g style="fill:#000000; fill-opacity:0.0; 
stroke:#000000; stroke-width:512; stroke-opacity:1; 
stroke-linecap:round; stroke-linejoin:round;">
<path d="M2504 1344
L2504 1541
" />
<path d="M3074 1012
L2934 873
" />
<path d="M2074 873
L1934 1012
" />
</g>
<g style="fill:#000000; fill-opacity:0.0; 
stroke:#000000; stroke-width:0; stroke-opacity:1; 
stroke-linecap:round; stroke-linejoin:round;">
</g>
<g style="fill:#000000; fill-opacity:1.0; 
stroke:#000000; stroke-width:0; stroke-opacity:1; 
stroke-linecap:round; stroke-linejoin:round;">
<polyline style="fill-rule:evenodd;"
points="3764,1382
3764,502
4644,502
4644,1382
3764,1382
" /> 
<polyline style="fill-rule:evenodd;"
points="1689,3107
1689,2227
2569,2227
2569,3107
1689,3107
" /> 
<polyline style="fill-rule:evenodd;"
points="364,1382
364,502
1244,502
1244,1382
364,1382
" /> 
<polyline style="fill-rule:evenodd;"
points="3573,1606
4085,1606
4085,1881
3573,1881
3573,1606
" /> 
<polyline style="fill-rule:evenodd;"
points="3573,2354
4085,2354
4085,2629
3573,2629
3573,2354
" /> 
<polyline style="fill-rule:evenodd;"
points="2823,1981
3335,1981
3335,2256
2823,2256
2823,1981
" /> 
<polyline style="fill-rule:evenodd;"
points="2823,2729
3335,2729
3335,3004
2823,3004
2823,2729
" /> 
<polyline style="fill-rule:evenodd;"
points="1385,2529
873,2529
873,2254
1385,2254
1385,2529
" /> 
<polyline style="fill-rule:evenodd;"
points="1385,1781
873,1781
873,1506
1385,1506
1385,1781
" /> 
</g>
<g style="fill:#000000; fill-opacity:1.0; 
stroke:#000000; stroke-width:98.4252; stroke-opacity:1; 
stroke-linecap:round; stroke-linejoin:round;">
</g>
<g style="fill:#000000; fill-opacity:0.0; 
stroke:#000000; stroke-width:98.4252; stroke-opacity:1; 
stroke-linecap:round; stroke-linejoin:round;">
<path d="M3829 1743
L3829 1317
" />
<path d="M3829 1317
L4204 942
" />
<path d="M4529 1824
L3909 1824
" />
<path d="M3909 1824
L3829 1743
" />
<path d="M4204 942
L4204 1499
" />
<path d="M4204 1499
L4529 1824
" />
<path d="M4529 2611
L4529 3217
" />
<path d="M329 1417
L804 942
" />
<path d="M329 3217
L329 1417
" />
<path d="M529 3417
L329 3217
" />
<path d="M4329 3417
L529 3417
" />
<path d="M4529 3217
L4329 3417
" />
<path d="M804 942
L2004 942
" />
<path d="M1129 1643
L1129 1267
" />
<path d="M1129 1267
L804 942
" />
<path d="M3079 2118
L3079 2017
" />
<path d="M3079 2017
L2504 1442
" />
<path d="M3829 2491
L3603 2491
" />
<path d="M3603 2491
L3230 2118
" />
<path d="M3230 2118
L3079 2118
" />
<path d="M2129 2667
L1979 2667
" />
<path d="M1979 2667
L1703 2391
" />
<path d="M1703 2391
L1129 2391
" />
<path d="M3079 2866
L2328 2866
" />
<path d="M2328 2866
L2129 2667
" />
</g>
<g style="fill:#000000; fill-opacity:1.0; 
stroke:#000000; stroke-width:100; stroke-opacity:1; 
stroke-linecap:round; stroke-linejoin:round;">
<polyline style="fill-rule:evenodd;"
points="4729,1967
4319,1967
4107,1826
4079,1817
3604,1817
3604,197
4729,197
4729,1967
" /> 
<polyline style="fill-rule:evenodd;"
points="2329,848
2017,1183
2007,1200
2004,1217
2004,1717
654,1717
635,1721
618,1733
607,1749
604,1767
604,2767
608,2787
619,2803
636,2814
654,2817
1304,2817
1304,3028
1311,3053
1436,3268
1449,3282
1467,3291
1479,3292
3504,3292
3523,3288
3540,3277
3551,3261
3554,3242
3554,2867
4279,2867
4298,2863
4315,2852
4326,2836
4329,2817
4329,2492
4729,2492
4729,3692
129,3692
129,217
2329,217
2329,848
" /> 
<polyline style="fill-rule:evenodd;"
points="2504,2592
2508,2612
2519,2628
2530,2636
2805,2786
2829,2792
3279,2792
3279,3067
1712,3067
1500,2573
1489,2556
1472,2546
1454,2542
929,2542
929,2342
1379,2342
1392,2341
1661,2267
2504,2267
2504,2592
" /> 
<polyline style="fill-rule:evenodd;"
points="2696,1305
3354,1963
3354,2192
3358,2212
3366,2225
3541,2425
3557,2437
3579,2442
4029,2442
4029,2567
3608,2567
3522,2418
3514,2407
3314,2207
3298,2196
3279,2192
2851,2192
2329,1623
2329,1292
2504,1156
2696,1305
" /> 
</g>
<g style="fill:#FFFFFF; fill-opacity:1.0; 
stroke:#FFFFFF; stroke-width:100; stroke-opacity:1; 
stroke-linecap:round; stroke-linejoin:round;">
</g>
<g style="fill:#FFFFFF; fill-opacity:1.0; 
stroke:#FFFFFF; stroke-width:0; stroke-opacity:1; 
stroke-linecap:round; stroke-linejoin:round;">
<circle cx="2504.53" cy="1442.91" r="157.48" /> 
</g>
<g style="fill:#FFFFFF; fill-opacity:1.0; 
stroke:#FFFFFF; stroke-width:39.3701; stroke-opacity:1; 
stroke-linecap:round; stroke-linejoin:round;">
</g>
<g style="fill:#FFFFFF; fill-opacity:1.0; 
stroke:#FFFFFF; stroke-width:0; stroke-opacity:1; 
stroke-linecap:round; stroke-linejoin:round;">
<circle cx="3004.53" cy="942.913" r="157.48" /> 
</g>
<g style="fill:#FFFFFF; fill-opacity:1.0; 
stroke:#FFFFFF; stroke-width:39.3701; stroke-opacity:1; 
stroke-linecap:round; stroke-linejoin:round;">
</g>
<g style="fill:#FFFFFF; fill-opacity:1.0; 
stroke:#FFFFFF; stroke-width:0; stroke-opacity:1; 
stroke-linecap:round; stroke-linejoin:round;">
<circle cx="2004.53" cy="942.913" r="157.48" /> 
</g>
<g style="fill:#FFFFFF; fill-opacity:1.0; 
stroke:#FFFFFF; stroke-width:39.3701; stroke-opacity:1; 
stroke-linecap:round; stroke-linejoin:round;">
</g>
<g style="fill:#FFFFFF; fill-opacity:1.0; 
stroke:#FFFFFF; stroke-width:0; stroke-opacity:1; 
stroke-linecap:round; stroke-linejoin:round;">
<circle cx="4204.53" cy="942.913" r="200" /> 
</g>
<g style="fill:#FFFFFF; fill-opacity:1.0; 
stroke:#FFFFFF; stroke-width:39.3701; stroke-opacity:1; 
stroke-linecap:round; stroke-linejoin:round;">
</g>
<g style="fill:#FFFFFF; fill-opacity:1.0; 
stroke:#FFFFFF; stroke-width:0; stroke-opacity:1; 
stroke-linecap:round; stroke-linejoin:round;">
<circle cx="2129.53" cy="2667.91" r="200" /> 
</g>
<g style="fill:#FFFFFF; fill-opacity:1.0; 
stroke:#FFFFFF; stroke-width:39.3701; stroke-opacity:1; 
stroke-linecap:round; stroke-linejoin:round;">
</g>
<g style="fill:#FFFFFF; fill-opacity:1.0; 
stroke:#FFFFFF; stroke-width:0; stroke-opacity:1; 
stroke-linecap:round; stroke-linejoin:round;">
<circle cx="804.528" cy="942.913" r="200" /> 
</g>
<g style="fill:#FFFFFF; fill-opacity:1.0; 
stroke:#FFFFFF; stroke-width:39.3701; stroke-opacity:1; 
stroke-linecap:round; stroke-linejoin:round;">
</g>
<g style="fill:#000000; fill-opacity:1.0; 
stroke:#000000; stroke-width:39.3701; stroke-opacity:1; 
stroke-linecap:round; stroke-linejoin:round;">
</g> 
</svg>
